<svg height="479pt" viewBox="0 -15 479.90424 479" width="479pt" xmlns="http://www.w3.org/2000/svg"><path d="m376 .464844c-.332031 0-.664062.019531-.992188.0625l-254.207031 31.777344-94.273437-31.425782c-2.117188-.726562-4.441406-.519531-6.398438.570313-1.957031 1.070312-3.375 2.914062-3.914062 5.078125-.640625 2.648437-16.214844 65.328125-16.214844 97.9375 0 32.605468 15.574219 95.285156 16.238281 97.933594.890625 3.5625 4.089844 6.0625 7.761719 6.066406.859375 0 1.714844-.140625 2.527344-.417969l94.273437-31.421875 151.199219 18.902344v196.9375c0 30.925781 25.070312 56 56 56s56-25.074219 56-56v-184.410156c55.667969-4.320313 97.976562-51.847657 95.828125-107.640626-2.152344-55.796874-47.992187-99.925781-103.828125-99.949218zm-360 104c0-23.914063 9.503906-67.410156 13.753906-85.648438l82.246094 27.414063v116.464843l-82.246094 27.417969c-4.25-18.242187-13.753906-61.738281-13.753906-85.648437zm112-56.9375 208-26v165.871094l-42.34375-5.285157-165.65625-20.714843zm160 248.9375h16v16h-16zm16-16h-16v-16h16zm64 112c0 22.089844-17.910156 40-40 40s-40-17.910156-40-40v-64h24c4.417969 0 8-3.582032 8-8v-64c0-4.417969-3.582031-8-8-8h-24v-50.9375l80 10zm8.488281-200-24.488281-3.066406v-169.871094l24.488281-3.0625c48.601563 0 88 39.398437 88 88 0 48.601562-39.398437 88-88 88zm0 0"/><path d="m448 104.464844c0 4.417968-3.582031 8-8 8s-8-3.582032-8-8c0-4.417969 3.582031-8 8-8s8 3.582031 8 8zm0 0"/><path d="m440 72.464844c0 4.417968-3.582031 8-8 8s-8-3.582032-8-8c0-4.417969 3.582031-8 8-8s8 3.582031 8 8zm0 0"/><path d="m440 136.464844c0 4.417968-3.582031 8-8 8s-8-3.582032-8-8c0-4.417969 3.582031-8 8-8s8 3.582031 8 8zm0 0"/></svg>