<?xml version="1.0" encoding="utf-8"?>
<!-- Generator: Adobe Illustrator 22.0.0, SVG Export Plug-In . SVG Version: 6.00 Build 0)  -->
<svg version="1.1" id="Capa_1" xmlns="http://www.w3.org/2000/svg" xmlns:xlink="http://www.w3.org/1999/xlink" x="0px" y="0px"
	 viewBox="0 0 512 512" style="enable-background:new 0 0 512 512;" xml:space="preserve">
<style type="text/css">
	.st0{fill:#BCD151;}
	.st1{fill:#8D9F25;}
	.st2{fill:#F6BB93;}
	.st3{fill:#E49775;}
	.st4{fill:#52668D;}
	.st5{fill:#243B5D;}
	.st6{fill:#7CCCF2;}
	.st7{fill:#4FACDB;}
	.st8{fill:#828C1F;}
	.st9{display:none;fill:#243B5D;}
</style>
<path class="st0" d="M201.7,389.1h18.1c32.6-41.8,154.4-17,114.7,122.9H87C47.4,372.1,169.1,347.3,201.7,389.1z"/>
<path class="st1" d="M245.2,373.1c39.5,10.1,76.4,52.6,52,138.9h37.4C367,397.7,291.7,360.2,245.2,373.1z"/>
<path class="st2" d="M210.8,420.4L210.8,420.4c20.7,0,37.4-16.7,37.4-37.4v-46.3h-74.8V383C173.4,403.7,190.2,420.4,210.8,420.4z"/>
<path class="st3" d="M173.4,373.6c23.3,5.3,49.8,6.7,74.8,4.3v-41.2h-74.8L173.4,373.6L173.4,373.6z"/>
<g>
	<path class="st2" d="M82.3,260.1h41.8v-63.2H82.3c-17.4,0-31.6,14.1-31.6,31.6l0,0C50.7,246,64.8,260.1,82.3,260.1z"/>
	<path class="st2" d="M339.3,260.1h-41.8v-63.2h41.8c17.5,0,31.6,14.1,31.6,31.6l0,0C370.9,246,356.8,260.1,339.3,260.1z"/>
</g>
<path class="st4" d="M98.4,247.6C90.6,213.9,79,168.9,73.9,147C40.5,118,33.6,56.7,53.8,13.2c2.9-6.3,10.9-8.1,16.3-3.8
	c13.3,10.8,39.4,21,88.3,3.1c95.2-34.9,175.5,12.1,180.1,36.2c5.1,0,30.2,3.5,30.2,28.1c0,20.9-34.4,132.4-49.2,170.8L98.4,247.6
	L98.4,247.6z"/>
<path class="st5" d="M338.5,48.7c-3.6-18.9-53.9-52-121.5-48.4c51,3.1,87.4,31.4,90.3,48.4c4.6,0,27,3.5,27,28.1
	c0,20.9-30.8,132.4-44,170.8h29.2c14.8-38.4,49.2-149.9,49.2-170.8C368.6,52.2,343.6,48.7,338.5,48.7z"/>
<path class="st2" d="M93,290.2c0,83.2,235.7,83.2,235.7,0c0-47.7-6.4-128.4-20.3-159.8c-3.3-7.5-10.5-15.1-16.3-18.6
	c-5-3-10.2-4.6-15.5-4.6c-5.9,0-11.7,1.9-17.5,4.6c-15,7.1-30.2,19.9-48.2,19.9s-33.2-12.8-48.2-19.9c-5.8-2.7-11.6-4.6-17.5-4.6
	c-5.3,0-10.5,1.7-15.5,4.6c-5.9,3.5-13.1,11.2-16.4,18.6C99.4,161.6,93,241.6,93,290.2z"/>
<path class="st3" d="M308.4,130.4c-3.3-7.5-10.5-15.1-16.3-18.6c-5-3-10.2-4.6-15.5-4.6c-4.3,0-8.5,1-12.8,2.6
	c1.1,0.6,2.3,1.3,3.4,2c5.1,3.5,11.4,11.2,14.3,18.6c12.2,31.4,17.7,112.1,17.7,159.8c0,39.8-47.1,60.5-96.3,62.3
	c61.4,1.9,125.7-18.8,125.7-62.3C328.6,242.5,322.3,161.8,308.4,130.4z"/>
<path class="st5" d="M154.8,221c-4.7,0-8.5-2.4-8.5-5.2v-8.2c0-2.9,3.8-5.2,8.5-5.2s8.5,2.4,8.5,5.2v8.2
	C163.3,218.6,159.5,221,154.8,221z"/>
<path class="st5" d="M266.4,175.3c8.6,0,17.2,2.4,23.8,7.3c3.5,2.5,4.2,7.3,1.7,10.8c-2.5,3.5-7.3,4.2-10.8,1.7
	c-8-5.8-21.5-5.8-29.5,0c-3.5,2.5-8.3,1.7-10.8-1.7c-2.5-3.5-1.7-8.3,1.7-10.8C249.3,177.8,257.9,175.3,266.4,175.3z"/>
<path class="st5" d="M174,196.6c-1.6,0-3.2-0.5-4.5-1.5c-8-5.8-21.5-5.8-29.5,0c-3.5,2.5-8.3,1.7-10.8-1.7
	c-2.5-3.5-1.7-8.3,1.7-10.8c13.4-9.7,34.3-9.7,47.7,0c3.5,2.5,4.2,7.3,1.7,10.8C178.8,195.5,176.4,196.6,174,196.6z"/>
<path class="st6" d="M403.8,11.5C365.3,7.6,330,35,324.3,73.3c-5.9,39.4,20.6,75.6,58.9,82.7c-2.9,7.2-7.4,13.8-13.1,19.1
	c-2.7,2.5-0.8,7,2.9,6.8c2.4-0.2,4.8-0.5,7.2-1c15.8-3.3,28.5-13.2,35.8-26.2c27.9-7.7,49.7-31.6,53.2-62
	C473.7,52.1,444.4,15.6,403.8,11.5z"/>
<path class="st7" d="M403.8,11.5c-4.8-0.5-9.6-0.5-14.2,0c0.1,0,0.2,0,0.3,0c33.6,4.1,57.8,40.6,54,81.1c-2.9,30.5-20.9,54.4-44,62
	c-6,13-16.5,23-29.6,26.2c-0.1,0-0.1,0-0.2,0c0.7,0.6,1.7,1,2.8,0.9c2.4-0.2,4.8-0.5,7.2-1c15.8-3.3,28.5-13.2,35.8-26.2
	c27.9-7.7,49.7-31.6,53.2-62C473.7,52.1,444.4,15.6,403.8,11.5z"/>
<path class="st1" d="M112.1,512v-38.3c0-4.3,3.5-7.7,7.7-7.7s7.7,3.5,7.7,7.7V512H112.1z M309.5,512v-38.3c0-4.3-3.5-7.7-7.7-7.7
	c-4.3,0-7.7,3.5-7.7,7.7V512H309.5z"/>
<path class="st8" d="M309.5,473.7c0-3.1-1.9-5.9-4.6-7.1c-0.6,13.5-3,28.6-7.7,45.3h12.3L309.5,473.7L309.5,473.7z"/>
<g>
	<path class="st5" d="M392.6,131.5c-4.3,0-7.7-3.5-7.7-7.7v-1c0-4.3,3.5-7.7,7.7-7.7s7.7,3.5,7.7,7.7v1
		C400.4,128.1,396.9,131.5,392.6,131.5z"/>
	<path class="st5" d="M392.6,109.9c-4.3,0-7.7-3.5-7.7-7.7V88.5c0-6.5,5.3-11.9,11.9-11.9h2.9c3.5,0,6.7-1.4,9-3.9
		c2.4-2.5,3.6-5.8,3.3-9.3c-0.4-6.1-5.5-11.2-11.6-11.6c-5.6-0.4-10.7,3.1-12.6,8.4c-1.4,4-5.8,6.2-9.8,4.8c-4-1.4-6.2-5.8-4.8-9.8
		c4.1-11.8,15.6-19.6,28.1-18.8c14,0.9,25.2,12.1,26,26c0.5,7.8-2.2,15.2-7.5,20.8c-5.1,5.4-12.2,8.6-19.6,8.8v10.1
		C400.4,106.4,396.9,109.9,392.6,109.9z"/>
</g>
<path class="st9" d="M218.9,270.7c2,0,4,0.7,5.5,2.2c8.6,8.4,22.4,8.3,30.8-0.3c3-3,7.9-3.1,10.9-0.1c3,3,3.1,7.9,0.1,10.9
	c-14.4,14.6-38,14.8-52.6,0.4c-3-3-3.1-7.9-0.1-10.9C214.9,271.5,216.9,270.7,218.9,270.7z"/>
<path class="st5" d="M265.8,221.2c-4.7,0-8.5-2.4-8.5-5.2v-8.2c0-2.9,3.8-5.2,8.5-5.2s8.5,2.4,8.5,5.2v8.2
	C274.4,218.8,270.5,221.2,265.8,221.2z"/>
<path class="st5" d="M184.6,277.7c2,0,4,0.7,5.5,2.2c8.6,8.4,22.4,8.3,30.8-0.3c3-3,7.9-3.1,10.9-0.1c3,3,3.1,7.9,0.1,10.9
	c-14.4,14.6-38,14.8-52.6,0.4c-3-3-3.1-7.9-0.1-10.9C180.7,278.5,182.6,277.7,184.6,277.7z"/>
</svg>
